<?xml version="1.0" standalone="no"?><!DOCTYPE svg PUBLIC "-//W3C//DTD SVG 1.1//EN" "http://www.w3.org/Graphics/SVG/1.1/DTD/svg11.dtd"><svg t="1671686224443" class="icon" viewBox="0 0 1024 1024" version="1.1" xmlns="http://www.w3.org/2000/svg" p-id="3327" xmlns:xlink="http://www.w3.org/1999/xlink" width="200" height="200"><path d="M512 512m-512 0a512 512 0 1 0 1024 0 512 512 0 1 0-1024 0Z" fill="#E0EAFF" p-id="3328"></path><path d="M303.535158 359.380884c1.077895 0.528168 2.155789 1.077895 3.233684 1.659958l0.549726-3.589389a22.204632 22.204632 0 0 1 2.15579-6.682948 22.538779 22.538779 0 0 1 30.331958-9.873516 173.228463 173.228463 0 0 1 63.186189 51.674274 175.890863 175.890863 0 0 1 73.383074-27.691116 22.560337 22.560337 0 0 1 25.8048 25.8048c-0.172463 1.164126-0.377263 2.360589-0.582063 3.578611l3.567831-0.592842a22.560337 22.560337 0 0 1 25.8048 25.8048 173.336253 173.336253 0 0 1-29.609768 76.056252 175.826189 175.826189 0 0 1 49.001095 61.2352 22.635789 22.635789 0 0 1-16.567242 32.520085l-3.578611 0.538947c0.571284 1.077895 1.077895 2.155789 1.659958 3.233684a22.280084 22.280084 0 0 1 2.155789 6.693727 22.560337 22.560337 0 0 1-18.744589 25.869473 173.336253 173.336253 0 0 1-81.488842-4.667284 175.610611 175.610611 0 0 1-43.11579 65.525221 22.549558 22.549558 0 0 1-36.0448-5.702063l-1.627621-3.233684c-0.851537 0.883874-1.703074 1.746189-2.543831 2.576168a22.571116 22.571116 0 0 1-36.034021-5.712842 173.444042 173.444042 0 0 1-20.738695-78.945011 175.847747 175.847747 0 0 1-75.635874-20.727915 22.560337 22.560337 0 0 1-5.712842-36.034021c0.829979-0.840758 1.692295-1.692295 2.576169-2.554611l-3.233685-1.627621a22.549558 22.549558 0 0 1-5.702063-36.0448 173.347032 173.347032 0 0 1 68.661895-44.118232 175.696842 175.696842 0 0 1-3.654063-78.352168 22.538779 22.538779 0 0 1 32.509305-16.567242z" fill="#FF2F90" p-id="3329"></path><path d="M374.837895 703.800589a33.5872 33.5872 0 0 1-24.306527-10.434021 11.608926 11.608926 0 0 1-0.8192 0.431158 33.339284 33.339284 0 0 1-44.840421-14.5408 191.865263 191.865263 0 0 1-21.644126-73.598652 194.613895 194.613895 0 0 1-70.063158-21.385432 33.414737 33.414737 0 0 1-14.077305-45.6704l-0.657516-0.625179a33.414737 33.414737 0 0 1-0.053895-47.168674 191.498779 191.498779 0 0 1 63.304758-43.352926 194.139621 194.139621 0 0 1-1.304252-73.242947 33.651874 33.651874 0 0 1 3.233684-9.862737 33.328505 33.328505 0 0 1 35.861558-17.645137c0.129347-0.291032 0.269474-0.560505 0.4096-0.829979a33.317726 33.317726 0 0 1 44.829642-14.594695 191.660463 191.660463 0 0 1 60.771705 46.823748 194.301305 194.301305 0 0 1 69.265516-23.875369 33.360842 33.360842 0 0 1 32.110484 13.322779 33.263832 33.263832 0 0 1 6.133221 15.338442l0.905432 0.140127a33.317726 33.317726 0 0 1 27.723452 38.135916 191.304758 191.304758 0 0 1-25.729347 72.218947 194.236632 194.236632 0 0 1 44.096674 58.497347 33.306947 33.306947 0 0 1-15.435453 45.271579l0.150905 0.92699a33.317726 33.317726 0 0 1-27.680337 38.146694 190.916716 190.916716 0 0 1-76.69221-2.155789 194.171958 194.171958 0 0 1-42.037895 60.017179 33.156042 33.156042 0 0 1-23.476547 9.701053z m-21.773474-37.0688a10.4448 10.4448 0 0 1 1.713853 0.140127 10.778947 10.778947 0 0 1 7.954863 5.874526l1.552168 3.082779a11.856842 11.856842 0 0 0 15.866611 5.130779 11.695158 11.695158 0 0 0 2.953431-2.155789 165.6832 165.6832 0 0 0 40.518064-61.386106 10.778947 10.778947 0 0 1 13.646147-6.726063 162.891453 162.891453 0 0 0 76.314947 4.236126 11.856842 11.856842 0 0 0 9.8304-13.484463 12.201768 12.201768 0 0 0-1.153347-3.535494l-1.54139-2.985769a10.908295 10.908295 0 0 1-0.064673-9.938189 10.778947 10.778947 0 0 1 7.9872-5.820632l3.427705-0.528168a11.770611 11.770611 0 0 0 9.819621-13.484464 12.007747 12.007747 0 0 0-1.077895-3.492378 165.898779 165.898779 0 0 0-45.864421-57.494906 10.778947 10.778947 0 0 1-2.155789-15.090526 163.193263 163.193263 0 0 0 27.594105-71.2704 11.802947 11.802947 0 0 0-9.798063-13.527579 12.223326 12.223326 0 0 0-3.664842 0l-3.406148 0.571284a10.886737 10.886737 0 0 1-9.431579-2.96421 10.778947 10.778947 0 0 1-3.039663-9.410021l0.560506-3.460042a11.802947 11.802947 0 0 0-9.808843-13.5168 11.501137 11.501137 0 0 0-3.654063 0 165.499958 165.499958 0 0 0-68.855915 25.869473 10.778947 10.778947 0 0 1-15.004295-2.576168 163.063916 163.063916 0 0 0-59.284211-48.289684 11.781389 11.781389 0 0 0-15.877389 5.152336 12.190989 12.190989 0 0 0-1.142569 3.524716l-0.528168 3.406148a10.778947 10.778947 0 0 1-15.661811 7.997979l-3.104336-1.616843a11.856842 11.856842 0 0 0-16.976843 8.623158 165.877221 165.877221 0 0 0 3.298358 73.480085 10.778947 10.778947 0 0 1-7.081768 13.462905 163.204042 163.204042 0 0 0-64.220968 41.434273 11.856842 11.856842 0 0 0 0 16.707369 12.137095 12.137095 0 0 0 2.974989 2.155789l2.705516 1.358148a11.210105 11.210105 0 0 1 6.068547 8.08421 10.8544 10.8544 0 0 1-2.899537 9.507032l-2.489937 2.446821a11.781389 11.781389 0 0 0 0 16.664253 11.943074 11.943074 0 0 0 2.931874 2.155789 165.995789 165.995789 0 0 0 70.936253 19.553011 10.778947 10.778947 0 0 1 10.617263 10.908294 163.419621 163.419621 0 0 0 19.542232 73.889684 11.759832 11.759832 0 0 0 18.830821 3.007327l2.479157-2.489937a10.843621 10.843621 0 0 1 7.663832-3.17979z" fill="#383C50" p-id="3330"></path><path d="M383.148463 510.7712m-44.732631 0a44.732632 44.732632 0 1 0 89.465263 0 44.732632 44.732632 0 1 0-89.465263 0Z" fill="#FFB22F" p-id="3331"></path><path d="M383.148463 566.261221a55.5008 55.5008 0 1 1 39.246148-94.736168 55.479242 55.479242 0 0 1-39.246148 94.736168z m0-89.465263a33.964463 33.964463 0 1 0 24.004716 9.948968 33.705768 33.705768 0 0 0-24.004716-9.92741z" fill="#383C50" p-id="3332"></path><path d="M589.942568 506.254821l1.164127-2.263579a82.027789 82.027789 0 0 1-2.511495-0.388042 16.092968 16.092968 0 0 1-4.7104-1.519832 15.877389 15.877389 0 0 1-6.941642-21.342315 121.963789 121.963789 0 0 1 36.335831-44.430821 123.720758 123.720758 0 0 1-19.466778-51.598821 15.866611 15.866611 0 0 1 18.151747-18.140969l2.511495 0.4096a135.728505 135.728505 0 0 1-0.420379-2.511495 15.866611 15.866611 0 0 1 18.151747-18.140968 121.802105 121.802105 0 0 1 53.474358 20.824926 123.548295 123.548295 0 0 1 43.061895-34.492631 15.855832 15.855832 0 0 1 22.862147 11.652042l0.388042 2.511495c0.765305-0.398821 1.519832-0.797642 2.263579-1.164127a15.855832 15.855832 0 0 1 22.862147 11.641263 121.942232 121.942232 0 0 1-3.233684 57.300885 123.796211 123.796211 0 0 1 46.08 30.3104 16.039074 16.039074 0 0 1 2.899537 3.998989 15.855832 15.855832 0 0 1-6.920084 21.342316 111.562105 111.562105 0 0 1-2.274358 1.142568l1.810863 1.789306a15.855832 15.855832 0 0 1-4.009768 25.341305 122.017684 122.017684 0 0 1-55.511579 14.583916 123.623747 123.623747 0 0 1-14.573137 53.183326 15.661811 15.661811 0 0 1-2.910316 3.998989 15.845053 15.845053 0 0 1-22.430989 0l-1.800085-1.810863a111.562105 111.562105 0 0 1-1.142568 2.274358 15.694147 15.694147 0 0 1-2.910316 3.99899 15.855832 15.855832 0 0 1-22.430989 0 121.953011 121.953011 0 0 1-31.03259-48.278906 123.656084 123.656084 0 0 1-55.0912 2.56539 15.866611 15.866611 0 0 1-11.652042-22.862148z" fill="#FF2F90" p-id="3333"></path><path d="M698.950063 590.222821a26.548547 26.548547 0 0 1-18.809263-7.760842 139.361011 139.361011 0 0 1-30.181053-43.11579 142.163537 142.163537 0 0 1-50.089768 0.377264 26.634779 26.634779 0 0 1-21.115958-18.065516 137.291453 137.291453 0 0 0-11.393347-45.842863 139.285558 139.285558 0 0 1 31.646989-41.973221 141.355116 141.355116 0 0 1-15.834274-47.524379 1477.276295 1477.276295 0 0 0 30.892464-45.896758 26.192842 26.192842 0 0 1 19.822484-4.775074 139.695158 139.695158 0 0 1 49.723284 17.127747 141.506021 141.506021 0 0 1 40.291705-29.739115 98.228547 98.228547 0 0 1 63.876042 32.573979 55.177432 55.177432 0 0 0 39.795874 81.7152 25.750905 25.750905 0 0 1 4.882863 6.736842 26.451537 26.451537 0 0 1 1.595284 20.2752 138.293895 138.293895 0 0 0-17.720589 43.794863 140.029305 140.029305 0 0 1-50.294568 15.36 141.991074 141.991074 0 0 1-15.090527 47.739958 27.540211 27.540211 0 0 1-4.839747 6.661389 141.786274 141.786274 0 0 0-47.179453 12.298779z m-42.231916-74.460968a10.778947 10.778947 0 0 1 10.283116 7.545263 111.465095 111.465095 0 0 0 28.337853 43.848758 5.141558 5.141558 0 0 0 7.232673 0 5.561937 5.561937 0 0 0 0.937769-1.304253l0.797642-1.584505a11.350232 11.350232 0 0 1 8.148884-6.133221 10.714274 10.714274 0 0 1 9.52859 2.8672l1.606063 1.606063a5.109221 5.109221 0 0 0 7.254231 0.075453 5.712842 5.712842 0 0 0 0.948548-1.315032 113.858021 113.858021 0 0 0 13.376673-48.429811 10.778947 10.778947 0 0 1 10.778948-10.617263 8.407579 8.407579 0 0 1 1.024 0 112.532211 112.532211 0 0 0 49.583158-13.398231 5.098442 5.098442 0 0 0 2.2528-6.86619 4.969095 4.969095 0 0 0-0.959327-1.304252l-1.6384-1.627621a10.778947 10.778947 0 0 1 2.77019-17.440337l2.058779-1.077895a5.076884 5.076884 0 0 0 2.242021-6.855411 4.581053 4.581053 0 0 0-0.894653-1.250357 113.178947 113.178947 0 0 0-41.951663-27.75579 10.778947 10.778947 0 0 1-6.736842-13.656926 111.777684 111.777684 0 0 0 2.845642-52.12699 5.066105 5.066105 0 0 0-5.83141-4.311579 4.656505 4.656505 0 0 0-1.465937 0.485053l-2.15579 1.077895a10.778947 10.778947 0 0 1-15.748042-7.944085l-0.366484-2.414484a5.076884 5.076884 0 0 0-5.809853-4.19301 4.850526 4.850526 0 0 0-1.53061 0.495831 113.362189 113.362189 0 0 0-39.300042 31.258948 10.778947 10.778947 0 0 1-15.090527 2.155789 111.303411 111.303411 0 0 0-48.688505-18.820042 5.540379 5.540379 0 0 0-3.826526 0.905432 5.055326 5.055326 0 0 0-2.015663 3.309136 4.516379 4.516379 0 0 0 0 1.573727l0.388042 2.34981a10.778947 10.778947 0 0 1-12.320337 12.503579l-1.077895-0.183242-1.336589-0.215579a5.173895 5.173895 0 0 0-5.84219 4.214569 4.516379 4.516379 0 0 0 0 1.573726 113.178947 113.178947 0 0 0 17.634358 47.093221 10.778947 10.778947 0 0 1-2.586947 15.004295 111.659116 111.659116 0 0 0-32.940463 40.485726 5.12 5.12 0 0 0 2.209684 6.887747 5.238568 5.238568 0 0 0 1.53061 0.485053l2.36059 0.366484a10.778947 10.778947 0 0 1 7.922526 15.801937l-1.002442 1.940211v0.075452a5.087663 5.087663 0 0 0 2.231242 6.823074 4.484042 4.484042 0 0 0 1.465937 0.485053 113.416084 113.416084 0 0 0 50.262232-2.15579 10.692716 10.692716 0 0 1 3.104336-0.312589z" fill="#383C50" p-id="3334"></path><path d="M696.427789 450.268968m-31.452968 0a31.452968 31.452968 0 1 0 62.905937 0 31.452968 31.452968 0 1 0-62.905937 0Z" fill="#00ABFF" p-id="3335"></path><path d="M696.427789 492.479326a42.210358 42.210358 0 1 1 29.868464-12.341894 42.124126 42.124126 0 0 1-29.868464 12.341894z m0-62.8736a20.663242 20.663242 0 1 0 14.627032 6.04699 20.609347 20.609347 0 0 0-14.627032-6.04699z" fill="#383C50" p-id="3336"></path></svg>